<svg width="19" height="19" xmlns="http://www.w3.org/2000/svg" xmlns:xlink="http://www.w3.org/1999/xlink" xml:space="preserve" overflow="hidden"><g transform="translate(-1279 -1027)"><path d="M1295.03 1031.35C1295.03 1030.92 1294.68 1030.56 1294.24 1030.56L1290.68 1030.56 1290.68 1029.97C1290.68 1029.42 1290.23 1028.98 1289.69 1028.98L1287.31 1028.98C1286.77 1028.98 1286.32 1029.42 1286.32 1029.97L1286.32 1030.56 1282.76 1030.56C1282.32 1030.56 1281.97 1030.92 1281.97 1031.35L1281.97 1032.54 1282.77 1032.54 1283.32 1043.28C1283.34 1043.81 1283.78 1044.22 1284.3 1044.22L1292.7 1044.22C1293.22 1044.22 1293.66 1043.81 1293.68 1043.28L1294.23 1032.54 1295.03 1032.54ZM1286.72 1029.97C1286.72 1029.64 1286.98 1029.38 1287.31 1029.38L1289.69 1029.38C1290.02 1029.38 1290.28 1029.64 1290.28 1029.97L1290.28 1030.56 1286.72 1030.56ZM1293.29 1043.26C1293.27 1043.57 1293.01 1043.82 1292.7 1043.82L1284.3 1043.82C1283.99 1043.82 1283.73 1043.58 1283.71 1043.26L1283.17 1032.54 1293.83 1032.54ZM1294.64 1032.15 1282.36 1032.15 1282.36 1031.35C1282.36 1031.14 1282.54 1030.96 1282.76 1030.96L1294.24 1030.96C1294.46 1030.96 1294.64 1031.14 1294.64 1031.35Z"/><path d="M1286.12 1042.44 1286.13 1042.44C1286.24 1042.43 1286.33 1042.34 1286.32 1042.23 1286.32 1042.23 1286.32 1042.23 1286.32 1042.23L1285.93 1034.12C1285.92 1034.01 1285.83 1033.92 1285.72 1033.93 1285.61 1033.93 1285.53 1034.03 1285.53 1034.14L1285.93 1042.25C1285.93 1042.35 1286.02 1042.44 1286.12 1042.44Z"/><path d="M1288.5 1042.44C1288.61 1042.44 1288.7 1042.35 1288.7 1042.24L1288.7 1034.12C1288.7 1034.02 1288.61 1033.93 1288.5 1033.93 1288.39 1033.93 1288.3 1034.02 1288.3 1034.12L1288.3 1042.24C1288.3 1042.35 1288.39 1042.44 1288.5 1042.44Z"/><path d="M1290.87 1042.44 1290.88 1042.44C1290.98 1042.44 1291.07 1042.35 1291.07 1042.25L1291.47 1034.13C1291.47 1034.03 1291.39 1033.93 1291.28 1033.93 1291.17 1033.92 1291.08 1034.01 1291.07 1034.11L1290.68 1042.23C1290.67 1042.34 1290.76 1042.43 1290.86 1042.44 1290.86 1042.44 1290.86 1042.44 1290.87 1042.44Z"/></g></svg>